<svg xmlns="http://www.w3.org/2000/svg" viewBox="0 0 288.7 119" width="288.7" height="119"><ellipse cx="145.3" cy="107" opacity=".4" rx="48.6" ry="5.5"/><path fill="#4d79b6" d="M281.5 73.1c1.2.9 1.8 2.5 1.8 4.6a5.5 5.5 0 0 1-2 4.4 6.8 6.8 0 0 1-4.8 1.8h-8v16.8a6.8 6.8 0 0 1-1.9 4.8 6.5 6.5 0 0 1-4.7 2 6.3 6.3 0 0 1-4.6-2 7.3 7.3 0 0 1-1.9-4.8V83.9H211a6.5 6.5 0 0 1-4.9-2 6.6 6.6 0 0 1-1.9-4.7 6.3 6.3 0 0 1 1.4-4l51-67a7.2 7.2 0 0 1 5.7-2.9 5.9 5.9 0 0 1 4.5 2 7.5 7.5 0 0 1 1.7 4.9v61.4h8a7.8 7.8 0 0 1 5 1.5zm-59.7-1.5h33.6V27.4z"/><path fill="#e5e5e5" stroke="#000" stroke-miterlimit="10" stroke-width="1.67" d="M191.9 59.6a43.7 43.7 0 0 1-.6 7.2 47.7 47.7 0 0 1-47 40.4 48.9 48.9 0 0 1-6.6-.5l-4-.7a42.8 42.8 0 0 1-5.1-1.5l-1.1-.4a48.3 48.3 0 0 1-21.9-16.7 48 48 0 0 1-3.9-49.2 48.6 48.6 0 0 1 11.9-15.1 47.4 47.4 0 0 1 30.7-11.2 48.1 48.1 0 0 1 19.7 4.3 47.2 47.2 0 0 1 25.1 27.3l.3 1a37.9 37.9 0 0 1 1.4 4.8 49.3 49.3 0 0 1 1.1 10.3z"/><path fill="#e5e5e5" stroke="#000" stroke-miterlimit="10" stroke-width="1.67" d="M113.6 23.1s-8.5 23.7 30.7 36.5c0 0 12 36.8-15.8 44.9m62.3-55.2s-16.2-17.7-46.5 10.3m-30.4-24S130.8 7.1 164 16.2m-40.6 32.6s24.1-42 59.1-17.7m-80.8 7.1s-6.1 37.7 44.8 44.1m-6 14.8s-36.2-1.8-43.8-37.5M164 46.3S185.2 88 148.4 107m32.3-62.8s15 28.4-8.5 53.9"/><path d="M191.9 59.6a43.7 43.7 0 0 1-.6 7.2 47.7 47.7 0 0 1-47 40.4 48.9 48.9 0 0 1-6.6-.5l-4-.7a42.8 42.8 0 0 1-5.1-1.5l-1.1-.4c45.7-5.9 58.4-40.2 61.9-59.6a37.9 37.9 0 0 1 1.4 4.8 49.3 49.3 0 0 1 1.1 10.3z" opacity=".2"/><path fill="#842a34" d="M125.2 56.7c0-9-1-18 0-27a3 3 0 0 1 4-2c2 1 2 2 2 5a2 2 0 0 0 4 0c0-2-1-7 3-7s2 4 2 8a3 3 0 0 0 4 2c3-1 2-4 2-8 0-1 1-1 2-2s3 0 4 2-2 6 2 9h2c2-1 2-3 2-6 0-1 1-1 2-2s3 0 4 2c1 9 0 17 0 26a2.2 2.2 0 0 1-2 2h-35c-1 0-1-1-2-2z"/><path fill="#842a34" d="M147.2 91.7c-5-2-11 1-16-3-11-10-7-25-5-37 0-6 6-11 12-12 11-2 24 1 26 13s2 22-3 32c-3 5-9 5-14 7z"/><path fill="#e5e5e5" d="M152.2 80.7h-16a3.5 3.5 0 0 1-1-2c6-1 13-2 19 0l-2 2zm-6-14c-1 1-1 2-2 2a2 2 0 0 1 0-4c1 0 1 1 2 2zm-6-10c-1 2 0 6-5 6-2 0-3-2-4-3-1-3 0-7 4-8s4 3 5 5zm18 0c0 3-2 6-5 6s-5-3-5-6 3-5 5-5 4 3 5 5z"/><path fill="#842a34" d="M139.8 55.5a3.2 3.2 0 0 1-3 3c-1 0-2-2-2-3 1-3 3-2 5 0zm13.5 0a3.2 3.2 0 0 1-3 3c-1 0-2-2-2-3 1-3 3-2 5 0z"/><path fill="#c545a0" d="M79.9 73.1a5.5 5.5 0 0 1 1.9 4.6 5.9 5.9 0 0 1-2 4.4 7.2 7.2 0 0 1-4.8 1.8h-8v16.8a6.9 6.9 0 0 1-2 4.8 6.3 6.3 0 0 1-4.7 2 5.9 5.9 0 0 1-4.5-2 6.8 6.8 0 0 1-1.9-4.8V83.9H9.5a6.7 6.7 0 0 1-5-2 6.9 6.9 0 0 1-1.8-4.7 6.2 6.2 0 0 1 1.3-4l51.1-67a7 7 0 0 1 5.6-2.9 5.6 5.6 0 0 1 4.5 2 7.1 7.1 0 0 1 1.8 4.9v61.4h8a7.5 7.5 0 0 1 4.9 1.5zm-59.6-1.5h33.6V27.4z"/></svg>