<svg id="Layer_1" data-name="Layer 1" xmlns="http://www.w3.org/2000/svg" viewBox="0 0 486 155.2"><title>Artboard 1</title><path d="M119.3,111.6a9.1,9.1,0,0,0,.7-3.3,9.9,9.9,0,0,0-.7-3.8,10.6,10.6,0,0,0-2.1-3.1,11,11,0,0,0-3.1-2,8,8,0,0,0-3.7-.8H97.1a.5.5,0,0,0-.6.6v34.1a.5.5,0,0,0,.6.6h13.3a11.8,11.8,0,0,0,3.7-.9,9.5,9.5,0,0,0,3.1-2.1,9,9,0,0,0,2.1-3.6,8.7,8.7,0,0,0,.7-3.3,9.4,9.4,0,0,0-.7-3.7,9.7,9.7,0,0,0-2.2-3.1,5.2,5.2,0,0,0-1.1-1l1.1-1A9.2,9.2,0,0,0,119.3,111.6Zm-2.7,12.5a4.7,4.7,0,0,1-.5,2.4,5.7,5.7,0,0,1-3.3,3.3,4.9,4.9,0,0,1-2.4.5h-9.8c-.4,0-.6-.1-.6-.4V118.3a.5.5,0,0,1,.6-.4h10.1a6.2,6.2,0,0,1,4.1,1.8A5.9,5.9,0,0,1,116.6,124.1Zm-.5-13.3a6.4,6.4,0,0,1-1.3,1.9,5.9,5.9,0,0,1-1.9,1.3,5.2,5.2,0,0,1-2.5.3h-9.8c-.4,0-.6-.2-.6-.5V102.7a.5.5,0,0,1,.6-.6h9.8a5.9,5.9,0,0,1,4.4,1.8,6,6,0,0,1,1.8,4.4A5.3,5.3,0,0,1,116.1,110.8Z" fill="#0071ce"/><path d="M136.8,98.9c-.1-.4-.3-.4-.5,0l-13.2,34.4c-.1.2-.1.3,0,.4l.6.2h2.6l.4-.2.2-.4,1.9-5c.2-.3.4-.5.6-.5h14.1a.6.6,0,0,1,.6.5l1.9,5,.2.4.4.2h2.6l.5-.2c.2-.1.2-.2.1-.4Zm4.9,25.4H131.2c-.6,0-.7-.2-.6-.6l4.8-12.2a1.1,1.1,0,0,1,2.2,0l4.7,12.2C142.5,124.1,142.2,124.3,141.7,124.3Z" fill="#0071ce"/><path d="M177.6,115a12.3,12.3,0,0,0,.9-4.7,11.3,11.3,0,0,0-.9-4.5,12.5,12.5,0,0,0-2.5-3.8,10.9,10.9,0,0,0-3.8-2.5,11.4,11.4,0,0,0-4.6-.9h-8.1a3.6,3.6,0,0,0-3.6,3.6v31.1a.5.5,0,0,0,.6.6h2.3a.5.5,0,0,0,.6-.6V122.5a.5.5,0,0,1,.6-.4h4.1a11.2,11.2,0,0,1,4.4.9l.8.4a11,11,0,0,1,5.4,5.6,10.2,10.2,0,0,1,1.2,4.3.5.5,0,0,0,.6.6h2.3a.5.5,0,0,0,.6-.6,14,14,0,0,0-2.1-7,15,15,0,0,0-4.8-5.2,12.1,12.1,0,0,0,3.5-2.4A13.4,13.4,0,0,0,177.6,115Zm-2.8-3.4h0a4.6,4.6,0,0,1-.5,2,9,9,0,0,1-1.7,2.6,9.5,9.5,0,0,1-2.7,1.7,6.8,6.8,0,0,1-3.2.7h-4.6a3.6,3.6,0,0,1-3.6-3.6V102.5a.7.7,0,0,1,.6-.4h7.6a6.8,6.8,0,0,1,3.2.7,9.5,9.5,0,0,1,2.7,1.7,9,9,0,0,1,1.7,2.6,8.8,8.8,0,0,1,.7,3.2A5.1,5.1,0,0,1,174.8,111.6Z" fill="#0071ce"/><path d="M240.9,117.3h-4.1a11.8,11.8,0,0,0-4,1,8.8,8.8,0,0,0-3.6,2.4l-4.7-4.8-1-.9-1-.7.8-.6a9,9,0,0,0,1.8-2.8,8,8,0,0,0,.7-3.4,8.4,8.4,0,0,0-.7-3.5,9,9,0,0,0-1.8-2.8,10.3,10.3,0,0,0-2.8-1.8,8.5,8.5,0,0,0-3.5-.8,8.1,8.1,0,0,0-3.4.8,9,9,0,0,0-2.8,1.8,9.2,9.2,0,0,0-1.9,2.8,8.4,8.4,0,0,0-.7,3.5,8,8,0,0,0,.7,3.4,9.2,9.2,0,0,0,1.9,2.8l.7.6a10.9,10.9,0,0,0-3.6,3.8,10.6,10.6,0,0,0-1.3,5.2,9.4,9.4,0,0,0,.8,4.1A9.7,9.7,0,0,0,213,133a10.3,10.3,0,0,0,11.5-2.3l4.7-5,7.3,7.6a1.4,1.4,0,0,0,1,.6h3.2l.7-.2c.1,0,.1-.2-.1-.4l-9.6-10.1a7.3,7.3,0,0,1,2.3-1.6,9.2,9.2,0,0,1,2.7-.8h4.2a.5.5,0,0,0,.6-.6v-2.3A.5.5,0,0,0,240.9,117.3Zm-28.8-11.9a5.2,5.2,0,0,1,1.2-1.7,4.6,4.6,0,0,1,1.6-1.1,5.4,5.4,0,0,1,7,7,4.6,4.6,0,0,1-1.1,1.6,4.5,4.5,0,0,1-1.7,1.1,4.8,4.8,0,0,1-1.7.5h-.7a4.8,4.8,0,0,1-3.4-1.6,4.7,4.7,0,0,1-1.6-3.7A6.5,6.5,0,0,1,212.1,105.4Zm9.9,22.9a8.6,8.6,0,0,1-2.2,1.5,7.6,7.6,0,0,1-2.7.5,6.7,6.7,0,0,1-2.8-.6,7.8,7.8,0,0,1-2.2-1.5,10.7,10.7,0,0,1-1.5-2.2,6.7,6.7,0,0,1-.6-2.8,5.8,5.8,0,0,1,.6-2.6,6.4,6.4,0,0,1,1.4-2.2,8,8,0,0,1,2.1-1.5,5.8,5.8,0,0,1,2.6-.6h.3a7.6,7.6,0,0,1,2.7.5,11.4,11.4,0,0,1,2.3,1.5l4.7,4.9Z" fill="#0071ce"/><path d="M295.2,116.2h-11a.5.5,0,0,0-.6.6v2.4a.5.5,0,0,0,.6.6h7.5a.5.5,0,0,1,.6.4v7.1c0,.2-.3.4-.8.7a14.2,14.2,0,0,1-2.7,1.4,12.9,12.9,0,0,1-5.3,1,12.6,12.6,0,0,1-5.5-1.2,13.8,13.8,0,0,1-7.5-7.5,13,13,0,0,1-1.2-5.5,12.6,12.6,0,0,1,1.2-5.5,13.8,13.8,0,0,1,7.5-7.5,12.6,12.6,0,0,1,5.5-1.1,13.7,13.7,0,0,1,5.4,1,14.4,14.4,0,0,1,4,2.5l.5.2a.8.8,0,0,0,.6-.2l1.5-1.5a.6.6,0,0,0,0-.9,16.9,16.9,0,0,0-5.3-3.3,16.3,16.3,0,0,0-6.7-1.3,17.4,17.4,0,0,0-6.9,1.4,17.6,17.6,0,0,0-5.6,3.7,17.9,17.9,0,0,0-3.8,5.6,18.1,18.1,0,0,0-1.4,6.9,17.4,17.4,0,0,0,1.4,6.9,16.8,16.8,0,0,0,3.8,5.6,16.4,16.4,0,0,0,5.6,3.8,15.8,15.8,0,0,0,6.9,1.4,18.7,18.7,0,0,0,6.8-1.4,16.9,16.9,0,0,0,5.3-3.3l.2-.3V116.8A.5.5,0,0,0,295.2,116.2Z" fill="#0071ce"/><path d="M324.6,115a12.3,12.3,0,0,0,.9-4.7,11.3,11.3,0,0,0-.9-4.5,10.9,10.9,0,0,0-2.5-3.8,11.5,11.5,0,0,0-3.7-2.5,12.2,12.2,0,0,0-4.6-.9H305a3.1,3.1,0,0,0-3,3v31.7a.5.5,0,0,0,.6.6h2.3a.5.5,0,0,0,.6-.6V122.5a.5.5,0,0,1,.6-.4h4.1a10.8,10.8,0,0,1,4.4.9l.9.4a11,11,0,0,1,2.8,2,13.8,13.8,0,0,1,2.6,3.6,11.8,11.8,0,0,1,1.1,4.3.5.5,0,0,0,.6.6h2.3a.5.5,0,0,0,.6-.6,15,15,0,0,0-2-7,16.3,16.3,0,0,0-4.9-5.2,12.1,12.1,0,0,0,3.5-2.4A11.5,11.5,0,0,0,324.6,115Zm-2.7-3.4h0a6.6,6.6,0,0,1-.6,2,7.6,7.6,0,0,1-4.3,4.3,7.1,7.1,0,0,1-3.2.7h-5.2a3.1,3.1,0,0,1-3.1-3.1v-13a.7.7,0,0,1,.6-.4h7.7a6.7,6.7,0,0,1,3.1.7,9.5,9.5,0,0,1,2.7,1.7,9,9,0,0,1,1.7,2.6,7.1,7.1,0,0,1,.7,3.2C322,110.8,321.9,111.2,321.9,111.6Z" fill="#0071ce"/><rect x="331.4" y="98.6" width="3.5" height="35.27" rx="0.6" ry="0.6" fill="#0071ce"/><path d="M365.6,130.3H346.8a.5.5,0,0,1-.6-.6V99.2a.5.5,0,0,0-.6-.6h-2.3a.5.5,0,0,0-.6.6v34.1a.5.5,0,0,0,.6.6h22.3a.5.5,0,0,0,.6-.6v-2.4A.5.5,0,0,0,365.6,130.3Z" fill="#0071ce"/><path d="M393.4,130.3H374.6a.5.5,0,0,1-.6-.6V99.2a.5.5,0,0,0-.6-.6h-2.3a.5.5,0,0,0-.6.6v34.1a.5.5,0,0,0,.6.6h22.3a.5.5,0,0,0,.6-.6v-2.4A.5.5,0,0,0,393.4,130.3Z" fill="#0071ce"/><path d="M65.4,57.6a2.7,2.7,0,0,1-.6-3.2l.6-1.6a13.4,13.4,0,0,0,.6-4,12.5,12.5,0,0,0-1-5.1,11.7,11.7,0,0,0-2.9-4.2,13,13,0,0,0-4.3-2.9,12.7,12.7,0,0,0-5.2-1H25.5a2.8,2.8,0,0,0-2.8,2.8v2a2.8,2.8,0,0,0,2.8,2.8A2.7,2.7,0,0,1,28.3,46V78.2A2.8,2.8,0,0,1,25.5,81a2.8,2.8,0,0,0-2.8,2.8v2a2.8,2.8,0,0,0,2.8,2.8H53.6a17.4,17.4,0,0,0,6.9-1.4,19,19,0,0,0,5.7-3.8A19.8,19.8,0,0,0,70,77.8a18.1,18.1,0,0,0,1.4-6.9,17.4,17.4,0,0,0-2.1-8.4A16.9,16.9,0,0,0,65.4,57.6ZM39.1,47.2A2.8,2.8,0,0,1,42,44.4h9.5a4.2,4.2,0,0,1,3.2,1.3A4.4,4.4,0,0,1,56,48.9a4.8,4.8,0,0,1-1.3,3.3,4.1,4.1,0,0,1-3.2,1.5H42a2.9,2.9,0,0,1-2.9-2.9ZM60.6,74.1A9.7,9.7,0,0,1,58.7,77a9.5,9.5,0,0,1-2.8,2,8,8,0,0,1-3.4.7H42a2.8,2.8,0,0,1-2.9-2.8V64.4A2.9,2.9,0,0,1,42,61.5H52.5a8.1,8.1,0,0,1,3.4.8,9.2,9.2,0,0,1,2.8,1.9,11.2,11.2,0,0,1,1.9,2.9,8.7,8.7,0,0,1,.7,3.5A8.4,8.4,0,0,1,60.6,74.1Z" fill="#0071ce"/><path d="M124.9,81h-1.2a3,3,0,0,1-2.6-1.5l-4.4-8.3a2.8,2.8,0,0,1,.8-3.6,16.8,16.8,0,0,0,4.8-5.1,17,17,0,0,0,2.6-9.2,16.5,16.5,0,0,0-1.5-6.9,17.9,17.9,0,0,0-3.8-5.6A18.5,18.5,0,0,0,114,37a18.1,18.1,0,0,0-6.9-1.4H79a2.9,2.9,0,0,0-2.9,2.8v2A2.9,2.9,0,0,0,79,43.2,2.8,2.8,0,0,1,81.8,46V78.2A2.9,2.9,0,0,1,79,81a2.9,2.9,0,0,0-2.9,2.8v2A2.9,2.9,0,0,0,79,88.6H95.4a2.9,2.9,0,0,0,2.9-2.8v-2A2.9,2.9,0,0,0,95.4,81a2.8,2.8,0,0,1-2.8-2.8V73.8A2.7,2.7,0,0,1,95.4,71h8.5a2.7,2.7,0,0,1,2.5,1.5l7.9,14.6a2.8,2.8,0,0,0,2.5,1.5h8.1a2.9,2.9,0,0,0,2.8-2.8v-2A2.9,2.9,0,0,0,124.9,81ZM113.8,56.7a7.5,7.5,0,0,1-1.8,2.8,7,7,0,0,1-2.8,1.9,8.4,8.4,0,0,1-3.5.7H95.4a2.7,2.7,0,0,1-2.8-2.8v-12a2.8,2.8,0,0,1,2.8-2.9h10.3a10.3,10.3,0,0,1,3.4.7,13.8,13.8,0,0,1,2.8,1.9,9.7,9.7,0,0,1,1.9,2.9,9.9,9.9,0,0,1,.7,3.5A7.5,7.5,0,0,1,113.8,56.7Z" fill="#0071ce"/><path d="M173.8,42a24.6,24.6,0,0,0-7.8-5.7,23.1,23.1,0,0,0-9.5-2,23.8,23.8,0,0,0-9.8,2,22.4,22.4,0,0,0-7.6,5.7,25.1,25.1,0,0,0-4.9,8.6A34.1,34.1,0,0,0,132.4,62a34.7,34.7,0,0,0,1.8,11.5,26,26,0,0,0,4.9,8.8,22.1,22.1,0,0,0,7.6,5.6,24.6,24.6,0,0,0,9.9,1.9,22.4,22.4,0,0,0,17.2-7.5,26.9,26.9,0,0,0,5.2-8.7,34.7,34.7,0,0,0,1.9-11.5A33.9,33.9,0,0,0,179,50.8,26.3,26.3,0,0,0,173.8,42Zm-4.2,26.7a19.4,19.4,0,0,1-2.4,6.1,14.2,14.2,0,0,1-4.3,4.5,10.7,10.7,0,0,1-6.3,1.8,10.8,10.8,0,0,1-6.2-1.8,15.8,15.8,0,0,1-4.3-4.6,20.4,20.4,0,0,1-2.4-6.1,26.1,26.1,0,0,1-.8-6.7,24.6,24.6,0,0,1,.8-6.5,19.4,19.4,0,0,1,2.4-6.1,15.1,15.1,0,0,1,4.3-4.4,12.3,12.3,0,0,1,12.5,0,15.1,15.1,0,0,1,4.2,4.5,17.4,17.4,0,0,1,2.5,6.1,31.6,31.6,0,0,1,.8,6.8A28.7,28.7,0,0,1,169.6,68.7Z" fill="#0071ce"/><path d="M285.9,43.4a27.6,27.6,0,0,0-8.5-5.7A26.1,26.1,0,0,0,267,35.6H242.4a2.8,2.8,0,0,0-2.8,2.8v2a2.8,2.8,0,0,0,2.8,2.8,2.7,2.7,0,0,1,2.8,2.8V78.2a2.8,2.8,0,0,1-2.8,2.8,2.8,2.8,0,0,0-2.8,2.8v2a2.8,2.8,0,0,0,2.8,2.8H267a26.1,26.1,0,0,0,10.4-2.1,27.6,27.6,0,0,0,8.5-5.7,27.1,27.1,0,0,0,5.7-8.4,25.3,25.3,0,0,0,2.1-10.3,25.6,25.6,0,0,0-2.1-10.3A27.1,27.1,0,0,0,285.9,43.4Zm-4,25.6a19.8,19.8,0,0,1-3.8,5.6,17.3,17.3,0,0,1-5.7,3.8,18,18,0,0,1-6.9,1.3h-6.7a2.8,2.8,0,0,1-2.8-2.8V47.3a2.9,2.9,0,0,1,2.8-2.9h6.7a16.5,16.5,0,0,1,6.9,1.5,18.7,18.7,0,0,1,5.7,3.7,19,19,0,0,1,3.8,5.7,17.2,17.2,0,0,1,1.4,6.8A17.7,17.7,0,0,1,281.9,69Z" fill="#0071ce"/><path d="M370.8,39.4h0a3.8,3.8,0,0,0-3.8-3.8H352.5a3.8,3.8,0,0,0-3.8,3.8h0a3.8,3.8,0,0,0,3.8,3.8h1l-5.8,17.9a3.8,3.8,0,0,1-7.4-.3l-4.2-18.5a3.8,3.8,0,0,0-3.7-2.9h-1a3.8,3.8,0,0,0-3.7,3L324,60.1a3.8,3.8,0,0,1-7.3.4L311,43.2h1a3.8,3.8,0,0,0,3.8-3.8h0a3.8,3.8,0,0,0-3.8-3.8H297.5a3.8,3.8,0,0,0-3.8,3.8h0a3.8,3.8,0,0,0,3.8,3.8h.5a3.8,3.8,0,0,1,3.6,2.6L314.9,86a3.9,3.9,0,0,0,3.6,2.6h4.1a3.8,3.8,0,0,0,3.7-3l2.1-10.2a3.8,3.8,0,0,1,7.5-.1l2.4,10.4a3.8,3.8,0,0,0,3.7,2.9h4a3.8,3.8,0,0,0,3.6-2.6l13.3-40.2a3.8,3.8,0,0,1,3.6-2.6h.5A3.8,3.8,0,0,0,370.8,39.4Z" fill="#0071ce"/><path d="M417,81h-1.9a2.3,2.3,0,0,1-2.1-1.5L399.1,37.1a2,2,0,0,0-2-1.5H382.6a2.2,2.2,0,0,0-2.2,2.2V41a2.2,2.2,0,0,0,2.2,2.2h2.7L373.4,79.5a2.3,2.3,0,0,1-2.1,1.5h-.9a2.2,2.2,0,0,0-2.2,2.2v3.2a2.2,2.2,0,0,0,2.2,2.2h15.9a2.2,2.2,0,0,0,2.2-2.2V83.2a2.2,2.2,0,0,0-2.2-2.2,2.2,2.2,0,0,1-2.1-2.8l.8-2.4a2.1,2.1,0,0,1,2-1.6h12.5a2.3,2.3,0,0,1,2.1,1.6L404.9,87a2.1,2.1,0,0,0,2,1.6H417a2.2,2.2,0,0,0,2.2-2.2V83.2A2.2,2.2,0,0,0,417,81ZM395.4,65.4h-4.2a2.2,2.2,0,0,1-2.1-2.8l2.1-7.2a2.2,2.2,0,0,1,4.2,0l2.1,7.2A2.2,2.2,0,0,1,395.4,65.4Z" fill="#0071ce"/><path d="M230.6,81h-2a2.1,2.1,0,0,1-2-1.5L212.7,37.1a2.3,2.3,0,0,0-2.1-1.5H196.1a2.2,2.2,0,0,0-2.2,2.2V41a2.2,2.2,0,0,0,2.2,2.2h2.8l-12,36.3a2.2,2.2,0,0,1-2.1,1.5h-.9a2.1,2.1,0,0,0-2.1,2.2v3.2a2.1,2.1,0,0,0,2.1,2.2h15.9a2.2,2.2,0,0,0,2.2-2.2V83.2a2.2,2.2,0,0,0-2.2-2.2,2.1,2.1,0,0,1-2-2.8l.7-2.4a2.3,2.3,0,0,1,2.1-1.6H213a2.3,2.3,0,0,1,2.1,1.6L218.4,87a2.3,2.3,0,0,0,2.1,1.6h10.1a2.1,2.1,0,0,0,2.1-2.2V83.2A2.1,2.1,0,0,0,230.6,81ZM208.9,65.4h-4.2a2.2,2.2,0,0,1-2.1-2.8l2.1-7.2a2.2,2.2,0,0,1,4.2,0l2.1,7.2A2.2,2.2,0,0,1,208.9,65.4Z" fill="#0071ce"/><path d="M461.8,35.6H445.3a2.8,2.8,0,0,0-2.8,2.8v2a2.8,2.8,0,0,0,2.8,2.8h2.6l-6.6,11.6a2.9,2.9,0,0,1-5,0l-6.6-11.6h2.7a2.9,2.9,0,0,0,2.8-2.8v-2a2.9,2.9,0,0,0-2.8-2.8H415.9a2.9,2.9,0,0,0-2.8,2.8v2a2.9,2.9,0,0,0,2.8,2.8h1.6a3,3,0,0,1,2.5,1.3l13.1,21.9a2.3,2.3,0,0,1,.4,1.4V78.2a2.9,2.9,0,0,1-2.8,2.8h0a2.9,2.9,0,0,0-2.9,2.8v2a2.9,2.9,0,0,0,2.9,2.8h16.4a2.8,2.8,0,0,0,2.8-2.8v-2a2.8,2.8,0,0,0-2.8-2.8,2.8,2.8,0,0,1-2.8-2.8V67.8a2.3,2.3,0,0,1,.4-1.4l13-21.8a2.9,2.9,0,0,1,2.5-1.4h1.6a2.9,2.9,0,0,0,2.8-2.8v-2A2.9,2.9,0,0,0,461.8,35.6Z" fill="#0071ce"/></svg>