<svg xmlns="http://www.w3.org/2000/svg" viewBox="0 0 498.6 460" width="498.6" height="460"><path fill="#cf3339" d="M463.6 410H36.5a8 8 0 0 0-5.3 1.9 6.3 6.3 0 0 0-2.1 4.7 6.4 6.4 0 0 0 3.3 5.4 2.7 2.7 0 0 0 1.2.6 7.1 7.1 0 0 0 2.9.5h7c16.8 2.4 31 11.9 38.6 25.1a11.8 11.8 0 0 0 1.6 2.9v.2h.1c3.8 5.1 12.7 8.7 22.9 8.7h287.7c9.8 0 18.2-3.2 22.4-8l.6-.7a18.2 18.2 0 0 0 1.5-2.7l.6-1c8.6-13.9 24.7-23.5 43.3-24.3h.8a7.4 7.4 0 0 0 4.4-1.3l.8-.6a6 6 0 0 0 2.2-4.6c0-3.9-3.3-6.8-7.4-6.8z"/><path fill="#0071ce" d="M125.7 376a8.7 8.7 0 0 0 .7-3.2 9.3 9.3 0 0 0-2.8-6.9 11.3 11.3 0 0 0-3.1-2.1 9.4 9.4 0 0 0-3.7-.7h-13.3a.5.5 0 0 0-.6.6v34.1c0 .4.2.5.6.5h13.3a9.9 9.9 0 0 0 6.8-2.9 9 9 0 0 0 2.1-3.6 8.7 8.7 0 0 0 .7-3.3 9 9 0 0 0-.7-3.7 9.5 9.5 0 0 0-2.1-3.1l-1.2-1 1.2-1a9.5 9.5 0 0 0 2.1-3.7zm-2.7 12.6a4.7 4.7 0 0 1-.5 2.4 8.6 8.6 0 0 1-1.3 2 5.8 5.8 0 0 1-2 1.3 4.7 4.7 0 0 1-2.4.5H107c-.4 0-.6-.1-.6-.5v-11.5a.5.5 0 0 1 .6-.4h10.1a6.2 6.2 0 0 1 4.1 1.8 5.9 5.9 0 0 1 1.8 4.4zm-.5-13.4a6.9 6.9 0 0 1-1.3 2 5 5 0 0 1-1.9 1.3 5.2 5.2 0 0 1-2.5.3H107a.5.5 0 0 1-.6-.6v-11a.5.5 0 0 1 .6-.6h9.8a5.9 5.9 0 0 1 4.4 1.8 6 6 0 0 1 1.8 4.4 4.7 4.7 0 0 1-.5 2.4zm20.7-11.8c-.1-.5-.3-.5-.5 0l-13.2 34.4c-.1.2-.1.3 0 .4h3.6c.1-.1.1-.2.2-.4l1.9-5c.2-.3.4-.5.6-.5h14.1a.6.6 0 0 1 .6.5l1.9 5 .2.4h3.5c.2-.1.2-.2.1-.4zm4.9 25.4h-10.5q-.7 0-.6-.6l4.8-12.3a1.2 1.2 0 0 1 2.2.1l4.7 12.2q.3.6-.6.6zm35.9-9.3a12.3 12.3 0 0 0 .9-4.7 11.5 11.5 0 0 0-3.4-8.3 11.5 11.5 0 0 0-3.7-2.5 12.3 12.3 0 0 0-4.7-.9H165a3.6 3.6 0 0 0-3.6 3.6v31.1c0 .4.2.5.6.5h2.3c.4 0 .6-.1.6-.5V387a.5.5 0 0 1 .6-.4h4.1a11.2 11.2 0 0 1 4.4.9l.8.4a11.5 11.5 0 0 1 2.9 2 13.8 13.8 0 0 1 2.6 3.6 11.8 11.8 0 0 1 1.1 4.3c0 .4.2.5.6.5h2.3c.4 0 .6-.1.6-.5a14 14 0 0 0-2.1-7 14.2 14.2 0 0 0-4.8-5.2 12.1 12.1 0 0 0 3.5-2.4 13.4 13.4 0 0 0 2.5-3.7zm-2.7-3.4a7.6 7.6 0 0 1-.6 2 10.6 10.6 0 0 1-1.7 2.6 9.5 9.5 0 0 1-2.7 1.7 8.3 8.3 0 0 1-3.2.7h-4.6a3.6 3.6 0 0 1-3.6-3.6V367a.5.5 0 0 1 .6-.4h7.6a8.3 8.3 0 0 1 3.2.6 12.7 12.7 0 0 1 2.7 1.8 9 9 0 0 1 1.7 2.6 7.1 7.1 0 0 1 .7 3.2c0 .5-.1.9-.1 1.3zm66 5.7h-4.1a12.1 12.1 0 0 0-4 .9 10.1 10.1 0 0 0-3.6 2.5l-4.7-4.8a4.3 4.3 0 0 0-1-.9l-.9-.7.7-.6a9 9 0 0 0 1.8-2.8 8 8 0 0 0 .7-3.4 8.1 8.1 0 0 0-.7-3.5 9 9 0 0 0-1.8-2.8 10.7 10.7 0 0 0-2.8-1.9 10.4 10.4 0 0 0-3.5-.7 9.8 9.8 0 0 0-3.4.7 9 9 0 0 0-4.7 4.7 8.1 8.1 0 0 0-.7 3.5 8 8 0 0 0 .7 3.4 9.2 9.2 0 0 0 1.9 2.8l.7.6a10.9 10.9 0 0 0-3.6 3.8 10.3 10.3 0 0 0-1.3 5.2 9.4 9.4 0 0 0 .8 4.1 9.7 9.7 0 0 0 5.6 5.6 10.9 10.9 0 0 0 8.2 0 8.6 8.6 0 0 0 3.3-2.3l4.8-5 7.2 7.6a1.2 1.2 0 0 0 1 .5h3.9c.1 0 .1-.2-.1-.4l-9.6-10.1a8.7 8.7 0 0 1 2.3-1.6 9.2 9.2 0 0 1 2.7-.8h4.2a.5.5 0 0 0 .6-.6v-2.3a.5.5 0 0 0-.6-.7zm-28.8-11.9a5.2 5.2 0 0 1 1.2-1.7 3.6 3.6 0 0 1 1.6-1.1 5.2 5.2 0 0 1 7.4 4.9 4.5 4.5 0 0 1-.4 2 5 5 0 0 1-1.1 1.7 4.5 4.5 0 0 1-1.7 1.1 3.3 3.3 0 0 1-1.7.4h-.7a4.3 4.3 0 0 1-3.4-1.5 4.9 4.9 0 0 1-1.6-3.7 6.5 6.5 0 0 1 .4-2.1zm9.9 22.9a8.6 8.6 0 0 1-2.2 1.5 7.6 7.6 0 0 1-2.7.5 6.7 6.7 0 0 1-2.8-.6 10.7 10.7 0 0 1-2.2-1.5 9.1 9.1 0 0 1-1.5-2.3 6 6 0 0 1-.6-2.7 5.8 5.8 0 0 1 .6-2.6 5.5 5.5 0 0 1 1.4-2.2 8 8 0 0 1 2.1-1.5 5.8 5.8 0 0 1 2.6-.6h.3a7.6 7.6 0 0 1 2.7.5 9.1 9.1 0 0 1 2.3 1.5l4.7 4.9zm73.2-12.1h-11a.5.5 0 0 0-.6.6v2.4c0 .3.2.5.6.5h7.5a.6.6 0 0 1 .6.5v7.1c0 .1-.3.4-.8.7a14.2 14.2 0 0 1-2.7 1.4 12.9 12.9 0 0 1-5.3 1 16.9 16.9 0 0 1-5.5-1.2 15.4 15.4 0 0 1-4.5-3 13.7 13.7 0 0 1-3-4.5 13 13 0 0 1-1.2-5.5 12.6 12.6 0 0 1 1.2-5.5 13.8 13.8 0 0 1 7.5-7.5 13 13 0 0 1 5.5-1.2 13.3 13.3 0 0 1 5.4 1.1 14.4 14.4 0 0 1 4 2.5h1.1l1.5-1.5q.5-.6 0-.9a16.9 16.9 0 0 0-5.3-3.3 16.3 16.3 0 0 0-6.7-1.3 15.8 15.8 0 0 0-6.9 1.4 17.6 17.6 0 0 0-5.6 3.7 17.9 17.9 0 0 0-3.8 5.6 18.1 18.1 0 0 0-1.4 6.9 17.4 17.4 0 0 0 1.4 6.9 16.8 16.8 0 0 0 3.8 5.6 17.9 17.9 0 0 0 5.6 3.8 17.4 17.4 0 0 0 6.9 1.4 18.7 18.7 0 0 0 6.8-1.4 16.9 16.9 0 0 0 5.3-3.3.5.5 0 0 0 .2-.4v-12a.5.5 0 0 0-.6-.6zm29.4-1.2a12.3 12.3 0 0 0 .9-4.7 12.2 12.2 0 0 0-.9-4.6 10.5 10.5 0 0 0-2.5-3.7 11.5 11.5 0 0 0-3.7-2.5 12.2 12.2 0 0 0-4.6-.9h-8.8a3 3 0 0 0-3 3v31.7c0 .4.2.5.6.5h2.3c.4 0 .6-.1.6-.5V387a.5.5 0 0 1 .6-.4h4.1a10.8 10.8 0 0 1 4.4.9l.9.4a11 11 0 0 1 2.8 2 13.8 13.8 0 0 1 2.6 3.6 11.8 11.8 0 0 1 1.1 4.3c0 .4.2.5.6.5h2.3c.4 0 .6-.1.6-.5a15 15 0 0 0-2-7 15.3 15.3 0 0 0-4.9-5.2 12.1 12.1 0 0 0 3.5-2.4 11.5 11.5 0 0 0 2.5-3.7zm-2.7-3.4a7.6 7.6 0 0 1-.6 2 10.6 10.6 0 0 1-1.7 2.6 9 9 0 0 1-2.6 1.7 8.8 8.8 0 0 1-3.2.7H315a3.1 3.1 0 0 1-3.1-3.1v-13a.5.5 0 0 1 .6-.4h7.7a7.8 7.8 0 0 1 3.1.6 10.6 10.6 0 0 1 2.7 1.8 9 9 0 0 1 1.7 2.6 7.1 7.1 0 0 1 .7 3.2c0 .5-.1.9-.1 1.3z"/><rect width="3.5" height="35.27" x="337.8" y="363.1" fill="#0071ce" rx=".6" ry=".6"/><path fill="#0071ce" d="M372 394.8h-18.8a.5.5 0 0 1-.6-.6v-30.5a.5.5 0 0 0-.6-.6h-2.3a.5.5 0 0 0-.6.6v34.1c0 .4.2.5.6.5H372c.4 0 .6-.1.6-.5v-2.4a.5.5 0 0 0-.6-.6zm27.8 0H381a.5.5 0 0 1-.6-.6v-30.5a.5.5 0 0 0-.6-.6h-2.3a.5.5 0 0 0-.6.6v34.1c0 .4.2.5.6.5h22.3c.4 0 .6-.1.6-.5v-2.4a.5.5 0 0 0-.6-.6zm-328-72.7a2.7 2.7 0 0 1-.6-3.2l.6-1.6a13.9 13.9 0 0 0-.4-9.2 13.7 13.7 0 0 0-2.9-4.2 14.5 14.5 0 0 0-4.3-2.8 12.7 12.7 0 0 0-5.2-1H31.9a2.7 2.7 0 0 0-2.8 2.8v1.9a2.8 2.8 0 0 0 2.8 2.9 2.7 2.7 0 0 1 2.8 2.8v32.2a2.8 2.8 0 0 1-2.8 2.8 2.8 2.8 0 0 0-2.8 2.8v1.9a2.8 2.8 0 0 0 2.8 2.9H60a17.4 17.4 0 0 0 6.9-1.4 19 19 0 0 0 5.7-3.8 19.8 19.8 0 0 0 3.8-5.6 18.1 18.1 0 0 0 1.4-6.9 17.4 17.4 0 0 0-2.1-8.4 16.9 16.9 0 0 0-3.9-4.9zm-26.3-10.4a2.8 2.8 0 0 1 2.9-2.8h9.5a4.4 4.4 0 0 1 4.5 4.5 4.8 4.8 0 0 1-1.3 3.3 4.3 4.3 0 0 1-3.2 1.4h-9.5a2.8 2.8 0 0 1-2.9-2.8zM67 338.6a9.7 9.7 0 0 1-1.9 2.9 9.5 9.5 0 0 1-2.8 2 8 8 0 0 1-3.4.7H48.4a2.8 2.8 0 0 1-2.9-2.8v-12.6a2.9 2.9 0 0 1 2.9-2.8h10.5a8.1 8.1 0 0 1 3.4.8 9.2 9.2 0 0 1 2.8 1.9 9.7 9.7 0 0 1 1.9 2.9 9.1 9.1 0 0 1 0 7zm64.3 6.9h-1.2a2.7 2.7 0 0 1-2.5-1.5l-4.5-8.3a2.8 2.8 0 0 1 .8-3.6 16.8 16.8 0 0 0 4.8-5.1 17 17 0 0 0 2.6-9.2 16.2 16.2 0 0 0-1.5-6.9 18 18 0 0 0-9.4-9.4 18.1 18.1 0 0 0-6.9-1.4H85.4a2.8 2.8 0 0 0-2.9 2.8v1.9a2.9 2.9 0 0 0 2.9 2.9 2.8 2.8 0 0 1 2.8 2.8v32.2a2.9 2.9 0 0 1-2.8 2.8 2.9 2.9 0 0 0-2.9 2.8v1.9a2.9 2.9 0 0 0 2.9 2.9h16.4a2.9 2.9 0 0 0 2.9-2.9v-1.9a2.9 2.9 0 0 0-2.9-2.8 2.8 2.8 0 0 1-2.8-2.8v-4.4a2.7 2.7 0 0 1 2.8-2.8h8.5a2.9 2.9 0 0 1 2.5 1.4l7.9 14.7a2.8 2.8 0 0 0 2.5 1.5h8.1a2.9 2.9 0 0 0 2.8-2.9v-1.9a2.9 2.9 0 0 0-2.8-2.8zm-11.1-24.3a7.5 7.5 0 0 1-1.8 2.8 8.8 8.8 0 0 1-6.3 2.6h-10.3a2.8 2.8 0 0 1-2.8-2.8v-12a2.8 2.8 0 0 1 2.8-2.9h10.3a9.8 9.8 0 0 1 3.4.7 10.7 10.7 0 0 1 2.8 1.9 9.7 9.7 0 0 1 1.9 2.9 9.4 9.4 0 0 1 .7 3.4 7.7 7.7 0 0 1-.7 3.4zm60-14.7a23 23 0 0 0-17.3-7.7 23.8 23.8 0 0 0-9.8 2 23.5 23.5 0 0 0-7.6 5.6 24.6 24.6 0 0 0-4.9 8.7 34.1 34.1 0 0 0-1.8 11.4 34.7 34.7 0 0 0 1.8 11.5 26 26 0 0 0 4.9 8.8 22.1 22.1 0 0 0 7.6 5.6 24.6 24.6 0 0 0 9.9 1.9 22.4 22.4 0 0 0 17.2-7.5 26.9 26.9 0 0 0 5.2-8.7 35.5 35.5 0 0 0 0-22.9 26.9 26.9 0 0 0-5.2-8.7zm-4.2 26.7a19.4 19.4 0 0 1-2.4 6.1 14.2 14.2 0 0 1-4.3 4.5 10.7 10.7 0 0 1-6.3 1.8 11 11 0 0 1-6.2-1.8 15.8 15.8 0 0 1-4.3-4.6 20 20 0 0 1-2.4-6.2 27.2 27.2 0 0 1 0-13.1 19.4 19.4 0 0 1 2.4-6.1 15.1 15.1 0 0 1 4.3-4.4 11.1 11.1 0 0 1 6.4-1.7 10.4 10.4 0 0 1 6.1 1.7 15.1 15.1 0 0 1 4.2 4.5 17.4 17.4 0 0 1 2.5 6.1 31.6 31.6 0 0 1 .8 6.8 29.5 29.5 0 0 1-.8 6.4zm116.3-25.4a27.3 27.3 0 0 0-8.5-5.6 26.1 26.1 0 0 0-10.4-2.1h-24.6a2.7 2.7 0 0 0-2.8 2.8v1.9a2.8 2.8 0 0 0 2.8 2.9 2.7 2.7 0 0 1 2.8 2.8v32.2a2.8 2.8 0 0 1-2.8 2.8 2.8 2.8 0 0 0-2.8 2.8v1.9a2.8 2.8 0 0 0 2.8 2.9h24.6a26.1 26.1 0 0 0 10.4-2.1 27.6 27.6 0 0 0 8.5-5.7 27.1 27.1 0 0 0 5.7-8.4 26.3 26.3 0 0 0 0-20.6 28.8 28.8 0 0 0-5.7-8.5zm-4 25.7a19.8 19.8 0 0 1-3.8 5.6 19 19 0 0 1-5.7 3.8 18 18 0 0 1-6.9 1.3h-6.7a2.8 2.8 0 0 1-2.8-2.8v-29.6a2.9 2.9 0 0 1 2.8-2.9h6.7a18.1 18.1 0 0 1 6.9 1.4 19 19 0 0 1 5.7 3.8 19.8 19.8 0 0 1 3.8 5.6 17.7 17.7 0 0 1 0 13.8zm88.9-29.6a3.8 3.8 0 0 0-3.8-3.8h-14.5a3.8 3.8 0 0 0-3.8 3.8 3.8 3.8 0 0 0 3.8 3.8h1l-5.8 17.9a3.9 3.9 0 0 1-7.4-.3l-4.2-18.5a3.8 3.8 0 0 0-3.7-2.9h-1a3.7 3.7 0 0 0-3.7 3l-3.7 17.7a3.8 3.8 0 0 1-7.3.4l-5.7-17.3h1a3.8 3.8 0 0 0 3.8-3.8 3.8 3.8 0 0 0-3.8-3.8h-14.5a3.8 3.8 0 0 0-3.8 3.8 3.8 3.8 0 0 0 3.8 3.8h.5a3.8 3.8 0 0 1 3.6 2.6l13.3 40.2a3.9 3.9 0 0 0 3.6 2.6h4.1a3.8 3.8 0 0 0 3.7-3l2.1-10.2a3.8 3.8 0 0 1 7.5-.1l2.4 10.3a3.8 3.8 0 0 0 3.7 3h4a4 4 0 0 0 3.7-2.6l13.2-40.2a3.8 3.8 0 0 1 3.6-2.6h.5a3.8 3.8 0 0 0 3.8-3.8zm46.2 41.6h-1.9a2.3 2.3 0 0 1-2.1-1.5l-13.9-42.4a2 2 0 0 0-2-1.5H389a2.1 2.1 0 0 0-2.2 2.1v3.3a2.2 2.2 0 0 0 2.2 2.2h2.8l-12 36.3a2.3 2.3 0 0 1-2.1 1.5h-.9a2.2 2.2 0 0 0-2.2 2.2v3.2a2.2 2.2 0 0 0 2.2 2.2h15.9a2.2 2.2 0 0 0 2.2-2.2v-3.2a2.2 2.2 0 0 0-2.2-2.2 2.2 2.2 0 0 1-2.1-2.8l.8-2.4a2.1 2.1 0 0 1 2-1.6h12.5a2.3 2.3 0 0 1 2.1 1.6l3.3 11.2a2.1 2.1 0 0 0 2 1.6h10.1a2.2 2.2 0 0 0 2.2-2.2v-3.2a2.2 2.2 0 0 0-2.2-2.2zm-21.6-15.6h-4.2a2.2 2.2 0 0 1-2.1-2.8l2.1-7.2a2.2 2.2 0 0 1 4.2 0l2.1 7.2a2.2 2.2 0 0 1-2.1 2.8zM237 345.5h-2a2.1 2.1 0 0 1-2-1.5l-13.9-42.4a2.3 2.3 0 0 0-2.1-1.5h-14.5a2.1 2.1 0 0 0-2.2 2.1v3.3a2.2 2.2 0 0 0 2.2 2.2h2.8l-12 36.3a2.2 2.2 0 0 1-2.1 1.5h-.9a2.1 2.1 0 0 0-2.1 2.2v3.2a2.1 2.1 0 0 0 2.1 2.2h15.9a2.2 2.2 0 0 0 2.2-2.2v-3.2a2.2 2.2 0 0 0-2.2-2.2 2.2 2.2 0 0 1-2-2.8l.7-2.4a2.3 2.3 0 0 1 2.1-1.6h12.4a2.3 2.3 0 0 1 2.1 1.6l3.3 11.2a2.3 2.3 0 0 0 2.1 1.6H237a2.1 2.1 0 0 0 2.1-2.2v-3.2a2.1 2.1 0 0 0-2.1-2.2zm-21.7-15.6h-4.2a2.2 2.2 0 0 1-2.1-2.8l2.1-7.2a2.2 2.2 0 0 1 4.2 0l2.1 7.2a2.2 2.2 0 0 1-2.1 2.8zm252.9-29.8h-16.5a2.7 2.7 0 0 0-2.8 2.8v1.9a2.8 2.8 0 0 0 2.8 2.9h2.6l-6.6 11.6a2.9 2.9 0 0 1-5 0l-6.6-11.6h2.7a2.9 2.9 0 0 0 2.8-2.9v-1.9a2.8 2.8 0 0 0-2.8-2.8h-16.5a2.8 2.8 0 0 0-2.8 2.8v1.9a2.9 2.9 0 0 0 2.8 2.9h1.6a3 3 0 0 1 2.5 1.3l13.1 21.9a2.3 2.3 0 0 1 .4 1.4v10.4a2.9 2.9 0 0 1-2.8 2.8 2.9 2.9 0 0 0-2.9 2.8v1.9a2.9 2.9 0 0 0 2.9 2.9h16.4a2.8 2.8 0 0 0 2.8-2.9v-1.9a2.8 2.8 0 0 0-2.8-2.8 2.8 2.8 0 0 1-2.8-2.8v-10.4a2.3 2.3 0 0 1 .4-1.4l13-21.9a3 3 0 0 1 2.5-1.3h1.6a2.9 2.9 0 0 0 2.8-2.9v-1.9a2.8 2.8 0 0 0-2.8-2.8z"/><path fill="#cf3339" d="M498.6 232.8a23.6 23.6 0 0 1-13.5 4.3c-13.7 0-24.8-11.9-24.8-26.6a28.8 28.8 0 0 1 2.6-11.9h.1l1.8-3.2.9-1.8a55.4 55.4 0 0 0 4.6-13.9 63.8 63.8 0 0 0 1.3-12.5c0-24.6-14.2-45.7-34.4-54.2a43.3 43.3 0 0 1-1.4 61 36.7 36.7 0 0 1-21.5 9.9l-3.6.2c-21.2 0-38.3-18.5-38.3-41.3a43.4 43.4 0 0 1 1-9.6 61.1 61.1 0 0 0-10.2 34c0 1.5 0 3 .1 4.4.1 4.4-.8 18.6-13.8 26 0 0-20 12.1-34.7-10.7 0 0-10.9-19.5 6.2-35.5a31.5 31.5 0 0 1 2.9-2.3c1.8-1.2 3.8-2.2 5.6-3.5a52.8 52.8 0 0 0 19-25.4 39.7 39.7 0 0 1-19.8 5.4c-23.2 0-41.9-20.2-41.9-45V78a1.1 1.1 0 0 1 .1-.5l.3-4a37 37 0 0 0 .2-4.7 71.8 71.8 0 0 0-2.3-18.1C277.7 21.4 252.9 0 223.4 0h-2.5a71.5 71.5 0 0 1 13.4 42 72.5 72.5 0 0 1-2.9 20.5c-7.9 27.1-31 47-58.6 48.2h-2.5a60 60 0 0 1-23.2-4.6c1.8 18.9 13.1 33.8 28 42.9s18.2 11.5 9.9 35.1c0 0-7.8 18.8-26 16.3 0 0-21.5-2.5-23.6-25.1 0 0-.1-1.3-.2-3 .1-1.8.2-3.6.2-5.4v-1.2a60.9 60.9 0 0 0-10.2-32.7 43.5 43.5 0 0 1 1.1 9.6c0 22.8-17.2 41.3-38.4 41.3l-3.6-.2a36.7 36.7 0 0 1-21.5-9.9 43.3 43.3 0 0 1-1.4-61c-20.1 8.5-34.3 29.6-34.3 54.2a62.8 62.8 0 0 0 1.2 12.4 57.9 57.9 0 0 0 5.5 15.8h.1a8 8 0 0 0 .8 1.6l.9 1.5h.1a28.5 28.5 0 0 1 2.5 14c-.9 13.4-11.2 24.1-23.7 24.6A23.4 23.4 0 0 1 0 232.8 62.8 62.8 0 0 0 2.6 248a57.1 57.1 0 0 0 24.7 32l1.9 1 442.4-1.2 1.3-.8 1.3-.9a57 57 0 0 0 21.5-29.4 55.3 55.3 0 0 0 2.9-15.9z"/></svg>