<svg id="Layer_1" data-name="Layer 1" xmlns="http://www.w3.org/2000/svg" viewBox="0 0 145.8 153.8"><title>Artboard 1</title><polygon points="52.7 97.2 76.2 101.7 63.5 70.5 52.7 97.2" fill="none"/><polygon points="52.7 97.2 76.2 101.7 63.5 70.5 52.7 97.2" fill="none"/><path d="M107,129.3h0l-9.9-24.5h0L73.5,46.5H53.6L34.5,93.7h0l-6.6,16.5-.4.8L10.2,153.8H29.8l16.2-40,38.2,7.7,13.1,32.3h19.6ZM52.7,97.2,63.5,70.5l12.7,31.2Z" fill="#468dcb"/><polygon points="31.8 93.1 7.4 88.4 0 104.4 25.2 109.5 31.8 93.1" fill="#c568a9"/><polygon points="91 0 79.9 16 121 110.4 100.6 106.4 108.7 126.5 134.2 131.7 134.3 131.5 145.8 115.5 91 0" fill="#c568a9"/></svg>