<svg id="Layer_1" data-name="Layer 1" xmlns="http://www.w3.org/2000/svg" viewBox="0 0 58 61.2"><title>Artboard 1</title><polygon points="21 38.7 30.3 40.5 25.3 28 21 38.7" fill="none"/><polygon points="21 38.7 30.3 40.5 25.3 28 21 38.7" fill="none"/><path d="M42.6,51.4h0l-4-9.8h0L29.2,18.5H21.3L13.7,37.3h0l-2.6,6.5-.2.3L4,61.2h7.9l6.4-15.9,15.2,3.1,5.2,12.8h7.8ZM21,38.7,25.3,28l5,12.5Z" fill="#468dcb"/><polygon points="12.7 37.1 3 35.2 0 41.5 10 43.6 12.7 37.1" fill="#c568a9"/><polygon points="36.2 0 31.8 6.4 48.1 43.9 40 42.3 43.2 50.3 53.4 52.4 53.4 52.3 58 46 36.2 0" fill="#c568a9"/></svg>