<svg viewBox="0 0 396.5 418.2" xmlns="http://www.w3.org/2000/svg"><path d="m143.4 264.3 63.8 12.3-34.4-84.9z" fill="none"/><path d="m143.4 264.3 63.8 12.3-34.4-84.9z" fill="none"/><path d="m291.1 351.7h-.2l-26.9-66.7h.1l-64.2-158.5h-54.2l-51.9 128.2h-.1l-18 44.6-.9 2.4-47.2 116.5h53.5l44-108.8 103.9 21.1 35.5 87.7h53.5zm-147.7-87.4 29.4-72.6 34.4 84.9z" fill="#468dcb"/><g fill="#c568a9"><path d="m86.5 253.3-66.3-12.8-20.2 43.4 68.5 14z"/><path d="m247.5 0-30.2 43.4 111.7 256.7-55.4-10.7 22 54.7 69.2 14 .5-.6 31.2-43.4z"/></g></svg>